<svg width="324px" height="100px" viewBox="0 0 324 73" version="1.1" xmlns="http://www.w3.org/2000/svg" xmlns:xlink="http://www.w3.org/1999/xlink">
  <title>Flarum</title>
  <defs>
    <linearGradient x1="50%" y1="0%" x2="50%" y2="100%" id="linearGradient-1">
      <stop stop-color="#D22929" offset="0%"></stop>
      <stop stop-color="#B71717" offset="100%"></stop>
    </linearGradient>
    <linearGradient x1="50%" y1="0%" x2="50%" y2="100%" id="linearGradient-2">
      <stop stop-color="#E7762E" offset="0%"></stop>
      <stop stop-color="#E7562E" offset="100%"></stop>
    </linearGradient>
    <linearGradient x1="50%" y1="0%" x2="50%" y2="100%" id="linearGradient-3">
      <stop stop-color="#E7762E" offset="0%"></stop>
      <stop stop-color="#E7562E" offset="100%"></stop>
    </linearGradient>
  </defs>
  <g id="Page-1-Copy" stroke="none" stroke-width="1" fill="none" fill-rule="evenodd">
    <g id="symbol-name">
      <g id="symbol" transform="translate(0.000000, 0.000000)">
        <polygon id="Rectangle-7" fill="url(#linearGradient-1)" transform="translate(18.992475, 60.055970) scale(1, -1) translate(-18.992475, -60.055970) " points="3.28100097 67.7843544 3.25585284 71.4179104 34.729097 71.4179104 34.729097 48.6940299"></polygon>
        <path d="M1.50233444,0 C0.67261804,0 -6.34784439e-15,0.673057357 -4.66645372e-15,1.50356766 L8.86811991e-14,47.6119403 C0.0903997122,49.1366194 0.0127042007,50.726258 4.86812431,53.3284828 C4.86812431,53.3284828 0.110480342,48.7194253 7.59698997,48.6940299 L60.7759197,48.6940299 L60.7759197,0 L1.50233444,0 Z" id="Rectangle-6" fill="url(#linearGradient-2)"></path>
      </g>
      <path d="M246.359532,7.10542736e-15 L246.359532,54.1044776 C246.640789,56.2624904 247.032098,57.4173767 247.444816,58.4328358 C248.597361,58.7274165 249.543027,59.0549215 250.700669,59.5149254 C251.760483,59.0549215 252.689843,58.7274165 253.956522,58.4328358 C254.189887,57.4173767 254.564892,56.2624904 255.041806,54.1044776 L255.041806,7.10542736e-15 L268.065217,7.10542736e-15 L268.065217,54.1044776 C268.065217,60.5028841 266.597805,65.0879547 263.72408,68.1716418 C260.72807,71.0176087 256.391052,72.5 250.700669,72.5 C239.107941,72.5 233.33612,66.4325381 233.33612,54.1044776 L233.33612,7.10542736e-15 L246.359532,7.10542736e-15 Z M107.443144,-2.84217094e-14 L107.443144,12.9850746 L88.993311,12.9850746 L88.993311,28.1343284 L105.272575,28.1343284 L105.272575,42.2014925 L88.993311,42.2014925 L88.993311,71.4179104 L75.9698997,71.4179104 L75.9698997,-2.84217094e-14 L107.443144,-2.84217094e-14 Z M124.807692,-2.84217094e-14 L124.807692,58.4328358 L143.257525,58.4328358 L143.257525,71.4179104 L111.784281,71.4179104 L111.784281,-2.84217094e-14 L124.807692,-2.84217094e-14 Z M175.816054,-2.84217094e-14 L188.839465,71.4179104 L174.730769,71.4179104 L172.560201,57.3507463 L162.792642,57.3507463 L160.622074,71.4179104 L146.513378,71.4179104 L159.536789,-2.84217094e-14 L175.816054,-2.84217094e-14 Z M209.459866,0 C212.337956,0 214.942801,0.3591382 217.056856,1.08208955 C219.690943,1.79571255 221.735252,2.99283988 223.568562,4.32835821 C225.164466,6.34484669 226.499861,8.53387952 227.909699,10.8208955 C228.412307,13.9381354 228.890412,17.2387865 228.994983,21.641791 C228.890412,25.9950492 228.26393,29.9626712 226.824415,33.5447761 C225.757966,36.1194184 223.845548,38.5820803 221.397993,40.0373134 L231.165552,71.4179104 L217.056856,71.4179104 L209.459866,43.2835821 L206.204013,43.2835821 L206.204013,71.4179104 L193.180602,71.4179104 L193.180602,0 L209.459866,0 Z M287.600334,-2.84217094e-14 L294.11204,19.4776119 L298.453177,33.5447761 L299.538462,33.5447761 L303.879599,18.3955224 L310.391304,-2.84217094e-14 L323.414716,-2.84217094e-14 L323.414716,71.4179104 L310.391304,71.4179104 L310.391304,37.8731343 L309.30602,37.8731343 L306.050167,48.6940299 L303.879599,57.3507463 L294.11204,57.3507463 L291.941472,48.6940299 L288.685619,37.8731343 L287.600334,37.8731343 L287.600334,71.4179104 L274.576923,71.4179104 L274.576923,-2.84217094e-14 L287.600334,-2.84217094e-14 Z M168.219064,18.3955224 L166.048495,32.4626866 L164.963211,44.3656716 L171.474916,44.3656716 L170.389632,32.4626866 L168.219064,18.3955224 Z M208.374582,12.9850746 L206.204013,12.9850746 L206.204013,30.2985075 L208.374582,30.2985075 C209.391327,30.2985075 210.350937,30.175344 211.630435,30.2985075 C212.133097,29.6826829 212.938484,29.207624 213.801003,28.1343284 C214.377921,27.8000207 214.943406,26.8674976 214.886288,25.9701493 C215.765941,24.5449523 215.971572,23.0142068 215.971572,21.641791 C215.971572,18.2987361 215.303272,16.2401473 213.801003,15.1492537 C212.630032,13.6360813 210.899307,12.9850746 208.374582,12.9850746 Z" id="FLARUM" fill="url(#linearGradient-3)"></path>
    </g>
  </g>
</svg>
